ffmpeg version 3.4.8-0ubuntu0.2 Copyright (c) 2000-2020 the FFmpeg developers
  built with gcc 7 (Ubuntu 7.5.0-3ubuntu1~18.04)
  configuration: --prefix=/usr --extra-version=0ubuntu0.2 --toolchain=hardened --libdir=/usr/lib/x86_64-linux-gnu --incdir=/usr/include/x86_64-linux-gnu --enable-gpl --disable-stripping --enable-avresample --enable-avisynth --enable-gnutls --enable-ladspa --enable-libass --enable-libbluray --enable-libbs2b --enable-libcaca --enable-libcdio --enable-libflite --enable-libfontconfig --enable-libfreetype --enable-libfribidi --enable-libgme --enable-libgsm --enable-libmp3lame --enable-libmysofa --enable-libopenjpeg --enable-libopenmpt --enable-libopus --enable-libpulse --enable-librubberband --enable-librsvg --enable-libshine --enable-libsnappy --enable-libsoxr --enable-libspeex --enable-libssh --enable-libtheora --enable-libtwolame --enable-libvorbis --enable-libvpx --enable-libwavpack --enable-libwebp --enable-libx265 --enable-libxml2 --enable-libxvid --enable-libzmq --enable-libzvbi --enable-omx --enable-openal --enable-opengl --enable-sdl2 --enable-libdc1394 --enable-libdrm --enable-libiec61883 --enable-chromaprint --enable-frei0r --enable-libopencv --enable-libx264 --enable-shared
  libavutil      55. 78.100 / 55. 78.100
  libavcodec     57.107.100 / 57.107.100
  libavformat    57. 83.100 / 57. 83.100
  libavdevice    57. 10.100 / 57. 10.100
  libavfilter     6.107.100 /  6.107.100
  libavresample   3.  7.  0 /  3.  7.  0
  libswscale      4.  8.100 /  4.  8.100
  libswresample   2.  9.100 /  2.  9.100
  libpostproc    54.  7.100 / 54.  7.100
[rawvideo @ 0x55b36f98ca20] Estimating duration from bitrate, this may be inaccurate
Input #0, rawvideo, from '../../SVC-Encoder-20220109T061506Z-001/SVC-Encoder/Dataset/RollerCoaster/ERP_8x8/tile_yuv/Tile_61_480x240.yuv':
  Duration: 00:00:10.00, start: 0.000000, bitrate: 41472 kb/s
    Stream #0:0: Video: rawvideo (I420 / 0x30323449), yuv420p, 480x240, 41472 kb/s, 30 tbr, 30 tbn, 30 tbc
Stream mapping:
  Stream #0:0 -> #0:0 (rawvideo (native) -> h264 (libx264))
Press [q] to stop, [?] for help
[libx264 @ 0x55b36f999c60] using cpu capabilities: MMX2 SSE2Fast LZCNT SSSE3 SSE4.2 AVX
[libx264 @ 0x55b36f999c60] profile High, level 2.1
Output #0, rawvideo, to 'RollerCoaster_Tile_61_480x240_x264_QP_32.h264':
  Metadata:
    encoder         : Lavf57.83.100
    Stream #0:0: Video: h264 (libx264), yuv420p, 480x240, q=-1--1, 30 fps, 30 tbn, 30 tbc
    Metadata:
      encoder         : Lavc57.107.100 libx264
    Side data:
      cpb: bitrate max/min/avg: 0/0/0 buffer size: 0 vbv_delay: -1
frame=  211 fps=0.0 q=38.0 PSNR=Y:nan U:nan V:nan *:nan size=      41kB time=00:00:05.60 bitrate=  59.7kbits/s speed=11.2x    frame=  300 fps=0.0 q=38.0 LPSNR=Y:inf U:inf V:inf *:inf size=      69kB time=00:00:09.93 bitrate=  56.6kbits/s speed=13.1x    
video:69kB audio:0kB subtitle:0kB other streams:0kB global headers:0kB muxing overhead: 0.000000%
[libx264 @ 0x55b36f999c60] frame I:2     Avg QP:30.57  size:  4695  PSNR Mean Y:41.09 U:47.20 V:40.82 Avg:41.62 Global:41.61
[libx264 @ 0x55b36f999c60] frame P:78    Avg QP:30.79  size:   418  PSNR Mean Y:40.80 U:46.53 V:41.44 Avg:41.47 Global:41.44
[libx264 @ 0x55b36f999c60] frame B:220   Avg QP:37.50  size:   128  PSNR Mean Y:40.48 U:46.54 V:41.38 Avg:41.21 Global:41.20
[libx264 @ 0x55b36f999c60] consecutive B-frames:  0.7%  4.0%  2.0% 93.3%
[libx264 @ 0x55b36f999c60] mb I  I16..4: 13.9% 47.1% 39.0%
[libx264 @ 0x55b36f999c60] mb P  I16..4:  0.6%  0.2%  0.0%  P16..4: 33.9%  4.5%  0.5%  0.0%  0.0%    skip:60.2%
[libx264 @ 0x55b36f999c60] mb B  I16..4:  0.0%  0.0%  0.0%  B16..8: 24.4%  0.7%  0.0%  direct: 0.0%  skip:74.9%  L0:46.8% L1:52.7% BI: 0.5%
[libx264 @ 0x55b36f999c60] 8x8 transform intra:40.8% inter:93.2%
[libx264 @ 0x55b36f999c60] coded y,uvDC,uvAC intra: 32.7% 54.4% 29.7% inter: 1.1% 1.4% 0.0%
[libx264 @ 0x55b36f999c60] i16 v,h,dc,p: 13% 81%  4%  2%
[libx264 @ 0x55b36f999c60] i8 v,h,dc,ddl,ddr,vr,hd,vl,hu:  4% 39% 51%  1%  1%  0%  1%  1%  3%
[libx264 @ 0x55b36f999c60] i4 v,h,dc,ddl,ddr,vr,hd,vl,hu:  5% 76%  9%  2%  1%  0%  3%  0%  3%
[libx264 @ 0x55b36f999c60] i8c dc,h,v,p: 28% 66%  1%  5%
[libx264 @ 0x55b36f999c60] Weighted P-Frames: Y:2.6% UV:0.0%
[libx264 @ 0x55b36f999c60] ref P L0: 49.7% 13.3% 27.3%  9.6%  0.2%
[libx264 @ 0x55b36f999c60] ref B L0: 62.2% 30.2%  7.6%
[libx264 @ 0x55b36f999c60] ref B L1: 79.8% 20.2%
[libx264 @ 0x55b36f999c60] PSNR Mean Y:40.569 U:46.537 V:41.396 Avg:41.284 Global:41.261 kb/s:56.21
